<?xml version="1.0" encoding="utf-8"?>
<!-- Generator: Adobe Illustrator 21.1.0, SVG Export Plug-In . SVG Version: 6.00 Build 0)  -->
<svg version="1.1" id="Layer_1" xmlns="http://www.w3.org/2000/svg" xmlns:xlink="http://www.w3.org/1999/xlink" x="0px" y="0px"
	 viewBox="0 0 500 500" style="enable-background:new 0 0 500 500;" xml:space="preserve">
<style type="text/css">
	.st0{fill:#404040;stroke:#FFFFFF;stroke-miterlimit:10;}
	.st1{fill:#FFFFFF;stroke:#FFFFFF;stroke-width:2;stroke-miterlimit:10;}
	.st2{font-family:'Impact';}
	.st3{font-size:27.5343px;}
	.st4{fill:#FFFFFF;}
</style>
<ellipse class="st0" cx="251.2" cy="250" rx="248.8" ry="250"/>
<text transform="matrix(1.0882 0 0 1 223.7725 423.5918)" class="st1 st2 st3">A . D</text>
<path class="st4" d="M315.3,449.2H178.8c-4.4,0-7.9-3.6-7.9-7.9v-63.5c0-4.4,3.6-7.9,7.9-7.9H239v-24.6h-19.6
	c-3.1,0-5.8-1.8-7.2-4.5c-1.3-2.8-0.9-6,1-8.4l23.4-28.9l-46.3-20.7c-42.2-0.5-73-18.9-84.7-50.6c-11.2-30.4-2-67.7,21.7-90.6
	l-9.5-17c-1.4-2.5-1.3-5.5,0.1-7.9c1.4-2.4,4-4,6.9-3.9l54.8,0.7c0.4,0,0.7,0,1,0.1c2.1-34.4,30.7-61.7,65.6-61.7
	c36.2,0,65.7,29.5,65.7,65.7c0,33.6-25.3,61.4-57.9,65.2v22h20c3.1,0,5.8,1.8,7.2,4.5c1.3,2.8,0.9,6-1,8.4l-23,28.4l46.3,20.7
	c56.4,0.5,86.3,27.9,95.5,53.5c8.6,23.9,1.3,49.7-18.9,68.5l8.4,15c1.4,2.5,1.3,5.5-0.1,7.9c-1.4,2.4-4.1,3.9-6.9,3.9l-54.8-0.7
	c-1.3,0-2.5-0.3-3.6-0.9v27.4C323.3,445.7,319.7,449.2,315.3,449.2z M186.7,433.3h120.7v-47.6H186.7
	C186.7,385.7,186.7,433.3,186.7,433.3z M340.8,399.1l27.3,0.4l-13.4-23.9L340.8,399.1z M254.8,369.8h60.5c4.4,0,7.9,3.6,7.9,7.9
	v19.7l24.9-41.9c1.5-2.4,4.1-4,6.9-3.9c2.8,0,5.4,1.6,6.8,4.1l10.4,18.5c13.5-14.1,18-31.9,12-48.8c-7.4-20.5-32.4-42.5-80.6-43
	l-46.6,20.9l23.3,28.7c1.9,2.4,2.3,5.6,1,8.4c-1.3,2.8-4.1,4.5-7.2,4.5h-19.4L254.8,369.8L254.8,369.8z M236,329.3h21.6L246.8,316
	L236,329.3z M211.4,274.7l35.6,15.9l35.6-15.9L247,258.8L211.4,274.7z M135.4,155.9c-17.2,18.8-23.5,47.3-14.9,70.7
	c9.4,25.5,34.1,39.8,69.8,40.2l45.9-20.6l-23.1-28.5c-1.9-2.4-2.3-5.6-1-8.4c1.3-2.8,4.1-4.5,7.2-4.5h19v-22.1
	c-27.5-3.4-49.9-23.8-56-50.4l-24,40.2c-1.5,2.4-4.2,3.9-6.9,3.9c-2.8,0-5.4-1.6-6.8-4.1L135.4,155.9z M236,220.6l10.8,13.3
	l10.8-13.3H236z M246.3,67.6c-27.5,0-49.8,22.4-49.8,49.8s22.4,49.8,49.8,49.8s49.8-22.4,49.8-49.8S273.8,67.6,246.3,67.6z
	 M138.4,128.6l13.4,23.9l14-23.5L138.4,128.6z"/>
</svg>
